<svg width="389" height="83" viewBox="0 0 389 83" fill="none" xmlns="http://www.w3.org/2000/svg">
<path fill-rule="evenodd" clip-rule="evenodd" d="M346.87 23.4388C346.572 21.4856 344.892 20.0429 342.916 20.0429H336.95C334.741 20.0429 332.95 21.8337 332.95 24.0429V43.0883C332.461 38.8967 331.501 35.2934 330.07 32.2784C327.895 27.6173 324.671 24.1991 320.398 22.0239C316.125 19.771 310.881 18.6445 304.666 18.6445C298.063 18.6445 292.47 19.8098 287.886 22.1404C283.38 24.3933 279.962 27.8892 277.632 32.628C277.002 33.8868 272.074 33.8253 271.486 32.5468C271.445 32.4568 271.403 32.3674 271.361 32.2784C269.186 27.6173 265.962 24.1991 261.689 22.0239C257.416 19.771 252.172 18.6445 245.957 18.6445C239.354 18.6445 233.761 19.8098 229.177 22.1404C227.938 22.7598 226.782 23.4732 225.707 24.2805C223.957 25.596 220.771 24.462 220.771 22.2721C220.771 21.0409 219.773 20.0428 218.542 20.0428H213.584C211.375 20.0428 209.584 18.252 209.584 16.0428V6.56348C209.584 4.35434 207.794 2.56348 205.584 2.56348H200.366C198.42 2.56348 196.757 3.96335 196.424 5.88033L194.704 15.808C194.307 18.096 192.021 19.4906 189.704 19.642C188.456 19.7236 186 19.5 186 21.5C186 25.6414 182.316 22.9602 181.424 22.2992C180.685 21.752 179.892 21.2718 179.044 20.8586C176.014 19.3826 172.479 18.6445 168.439 18.6445C165.487 18.6445 162.768 19.033 160.282 19.8098C157.797 20.5867 155.544 21.7131 153.524 23.1892C151.663 24.6032 150.052 26.2668 148.691 28.18C148.578 28.3377 148.398 28.433 148.204 28.433C147.913 28.433 147.665 28.2202 147.621 27.9322L146.934 23.4388C146.636 21.4856 144.956 20.0429 142.98 20.0429H137.015C134.806 20.0429 133.015 21.8337 133.015 24.0429V66.449C133.015 68.4932 131.357 70.1504 129.313 70.1504C128.303 70.1504 127.371 69.8396 126.517 69.2182C125.74 68.519 125.351 67.4702 125.351 66.0719V38.2214C125.351 33.871 124.303 30.2586 122.205 27.3842C120.185 24.5098 117.233 22.3346 113.349 20.8586C109.542 19.3826 104.803 18.6445 99.1323 18.6445C93.8496 18.6445 89.2273 19.3437 85.2653 20.7421C81.3033 22.1404 78.2347 24.1602 76.0595 26.8016C75.7777 27.1337 75.1836 26.9587 75.1381 26.5254C74.6858 22.2228 72.9778 17.4389 70.6166 13.9835C67.5092 9.32233 63.2364 5.82645 57.7984 3.49587C52.3604 1.16529 46.2232 0 39.3868 0C26.8794 0 17.1686 3.41819 10.2546 10.2546C3.41819 17.0132 0 27.3843 0 41.3678C0 50.8455 1.51488 58.653 4.54463 64.7902C7.65208 70.9274 12.1579 75.472 18.062 78.4241C23.9661 81.2985 31.0744 82.7356 39.3868 82.7356C46.3786 82.7356 52.5935 81.6092 58.0315 79.3563C61.5283 77.8576 64.5273 75.8771 67.0283 73.4148C68.3472 72.1163 70.9935 72.7123 71.8645 74.3454C73.1851 76.5983 74.8554 78.3463 76.8752 79.5892C78.8951 80.7545 81.0314 81.5702 83.2843 82.0364C85.6149 82.5025 87.7901 82.7355 89.8099 82.7355C93.0728 82.7355 95.9471 82.3859 98.4331 81.6868C100.997 80.9876 103.211 80.0165 105.075 78.7735C106.921 77.5924 108.486 76.2359 109.77 74.704C109.898 74.552 110.085 74.462 110.283 74.462C110.58 74.462 110.837 74.661 110.928 74.9434C111.41 76.4498 112.178 77.7653 113.232 78.8901C114.398 80.0554 115.835 80.9487 117.544 81.5702C119.331 82.2694 121.35 82.619 123.603 82.619C125.934 82.619 127.915 82.3859 129.546 81.9198C130.923 81.5264 132.447 81.382 132.888 81.3466C132.972 81.3398 133.057 81.3372 133.141 81.3372H145.212C147.421 81.3372 149.212 79.5463 149.212 77.3372V45.5628C149.212 42.9214 149.756 40.5908 150.844 38.571C151.931 36.5512 153.446 34.9586 155.388 33.7933C157.33 32.628 159.506 32.0454 161.914 32.0454C163.545 32.0454 165.021 32.2396 166.342 32.628C167.663 33.0165 168.75 33.6768 169.605 34.609C170.537 35.4636 171.236 36.59 171.702 37.9884C172.168 39.309 172.401 40.9404 172.401 42.8826V77.3372C172.401 79.5463 174.192 81.3372 176.401 81.3372H184.599C186.808 81.3372 188.599 79.5463 188.599 77.3372V40.3189C188.599 38.6434 188.508 37.0715 188.325 35.6034C188.128 34.014 189.311 32.5115 190.913 32.5115C192.279 32.5115 193.387 33.6191 193.387 34.9856V67.1206C193.387 69.995 193.931 72.6363 195.018 75.0446C196.106 77.3752 197.854 79.2396 200.262 80.638C202.67 82.0363 205.817 82.7355 209.701 82.7355C210.866 82.7355 212.148 82.6189 213.546 82.3859C214.945 82.2305 216.265 81.9975 217.508 81.6867C218.108 81.5743 218.671 81.4529 219.198 81.3224C220.147 81.0876 220.771 80.2116 220.771 79.234C220.771 77.0036 224.018 75.8445 225.801 77.1852C226.882 77.9981 228.046 78.7218 229.294 79.3562C233.877 81.6091 239.548 82.7355 246.307 82.7355C250.502 82.7355 254.309 82.2694 257.727 81.3372C261.223 80.3273 264.214 78.8901 266.7 77.0256C269.186 75.0835 271.128 72.6752 272.526 69.8008C273.398 68.0092 274.076 66.0214 274.464 63.8374C274.698 62.5175 274.826 61.126 274.826 59.6628H262.776C260.566 59.6628 258.882 61.5069 258.172 63.5989C258.074 63.8869 257.965 64.1674 257.843 64.4405C257.222 65.8388 256.367 67.0041 255.28 67.9363C254.192 68.8686 252.871 69.5677 251.318 70.0339C249.842 70.5 248.171 70.733 246.307 70.733C242.889 70.733 240.131 70.1504 238.033 68.9851C236.014 67.7421 234.499 65.8777 233.489 63.3917C232.942 61.9346 232.529 60.2907 232.25 58.4599C231.906 56.2087 233.758 54.3024 236.035 54.3024H270.461C272.581 54.3024 274.311 55.9596 274.587 58.0613C274.658 58.6044 274.737 59.1382 274.826 59.6628C274.826 59.6628 275.301 64.0132 277.632 68.752C279.962 73.4909 283.419 77.0256 288.003 79.3562C292.586 81.6091 298.257 82.7355 305.016 82.7355C309.211 82.7355 313.018 82.2694 316.436 81.3372C319.932 80.3273 322.923 78.8901 325.409 77.0256C327.895 75.0835 329.837 72.6752 331.235 69.8008C331.498 69.2605 332.95 69.483 332.95 70.0838V79.996C332.95 80.7367 333.551 81.3372 334.292 81.3372H345.148C347.357 81.3372 349.148 79.5463 349.148 77.3372V45.5628C349.148 42.9214 349.692 40.5908 350.779 38.571C351.867 36.5512 353.382 34.9586 355.324 33.7933C357.266 32.628 359.441 32.0454 361.85 32.0454C363.481 32.0454 364.957 32.2396 366.278 32.628C367.598 33.0165 368.686 33.6768 369.541 34.609C370.473 35.4636 371.172 36.59 371.638 37.9884C372.104 39.309 372.337 40.9404 372.337 42.8826V77.3372C372.337 79.5463 374.128 81.3372 376.337 81.3372H384.535C386.744 81.3372 388.535 79.5463 388.535 77.3372V40.3189C388.535 35.1917 387.68 31.0355 385.971 27.8503C384.34 24.6652 382.009 22.3346 378.979 20.8586C375.95 19.3826 372.415 18.6445 368.375 18.6445C365.423 18.6445 362.704 19.033 360.218 19.8098C357.732 20.5867 355.479 21.7131 353.46 23.1892C351.599 24.6032 349.988 26.2668 348.626 28.18C348.514 28.3377 348.333 28.433 348.14 28.433C347.848 28.433 347.601 28.2202 347.557 27.9322L346.87 23.4388ZM292.198 63.3917C291.651 61.9346 291.238 60.2907 290.959 58.4599C290.615 56.2087 292.467 54.3024 294.744 54.3024H330.27C331.75 54.3024 332.95 55.5024 332.95 56.9826C332.95 58.4628 331.75 59.6628 330.27 59.6628H321.485C319.275 59.6628 317.591 61.5069 316.881 63.599C316.783 63.8869 316.674 64.1674 316.552 64.4405C315.931 65.8388 315.076 67.0041 313.989 67.9363C312.901 68.8686 311.58 69.5677 310.027 70.0339C308.551 70.5 306.88 70.733 305.016 70.733C301.598 70.733 298.84 70.1504 296.742 68.9851C294.723 67.7421 293.208 65.8777 292.198 63.3917ZM316.31 40.0702C316.74 42.2372 314.878 44.0479 312.669 44.0479H295.345C292.934 44.0479 291.018 41.9093 291.706 39.5982C292.038 38.4816 292.435 37.4789 292.897 36.59C293.985 34.5702 295.499 33.0941 297.442 32.1619C299.461 31.152 301.947 30.647 304.899 30.647C306.686 30.647 308.279 30.9189 309.677 31.4627C311.153 31.9289 312.396 32.7057 313.406 33.7933C314.416 34.8809 315.193 36.2793 315.737 37.9884C315.973 38.6375 316.164 39.3314 316.31 40.0702ZM215.427 50.69C215.427 57.9925 216.592 64.0132 218.923 68.752C219.234 69.3854 218.786 70.1503 218.08 70.1503H215.061C213.119 70.1503 211.721 69.6842 210.866 68.752C210.012 67.7421 209.584 66.3049 209.584 64.4404V36.137C209.584 34.142 211.215 32.5318 213.21 32.5567C215.852 32.5897 217.611 35.4183 216.918 37.9681C215.924 41.6287 215.427 45.8694 215.427 50.69ZM257.601 40.0702C258.031 42.2372 256.169 44.0479 253.96 44.0479H236.636C234.225 44.0479 232.309 41.9093 232.997 39.5982C233.329 38.4816 233.726 37.4789 234.188 36.59C235.276 34.5702 236.79 33.0941 238.733 32.1619C240.752 31.152 243.238 30.647 246.19 30.647C247.977 30.647 249.57 30.9189 250.968 31.4627C252.444 31.9289 253.687 32.7057 254.697 33.7933C255.707 34.8809 256.484 36.2793 257.028 37.9884C257.264 38.6375 257.455 39.3315 257.601 40.0702ZM93.1893 44.9801C88.3727 45.6016 85.3162 46.278 80.7207 48.3595C79.309 48.9988 77.4671 50.0471 76.3605 50.6965C75.7258 51.0691 75.0049 51.2728 74.2689 51.2728H62.6141C60.405 51.2728 58.6694 53.0791 58.2807 55.2538C57.9154 57.2983 57.2496 59.1176 56.2835 60.7116C54.7298 63.2753 52.5158 65.2174 49.6414 66.5381C46.767 67.8588 43.3877 68.5191 39.5034 68.5191C34.5315 68.5191 30.4529 67.5869 27.2678 65.7224C24.1604 63.7802 21.8298 60.9447 20.2761 57.2158C18.7223 53.4092 17.9455 48.7092 17.9455 43.1158V39.5034C17.9455 34.0653 18.6835 29.4819 20.1595 25.7529C21.7133 21.9463 24.0827 19.0719 27.2678 17.1298C30.5306 15.1876 34.648 14.2165 39.6199 14.2165C43.2711 14.2165 46.4563 14.9157 49.1753 16.3141C51.972 17.6347 54.1083 19.5769 55.5844 22.1405C56.5504 23.7345 57.2162 25.5538 57.5816 27.5984C57.9702 29.7731 59.7058 31.5794 61.915 31.5794H68.9397C71.1653 31.5794 72.7967 33.7818 72.7967 36.0074V37.4057C72.7967 38.0203 73.3556 38.4545 73.9701 38.4545H87.2463C88.0186 38.4545 88.6447 37.8284 88.6447 37.0561C88.6447 35.8908 88.9554 34.8421 89.5769 33.9098C90.2761 32.8999 91.4025 32.0842 92.9562 31.4627C94.5876 30.8412 96.6852 30.5305 99.2488 30.5305C101.812 30.5305 103.793 30.9189 105.192 31.6958C106.668 32.4727 107.678 33.5214 108.222 34.8421C108.843 36.1627 109.154 37.7165 109.154 39.5032V40.0479C109.154 42.257 107.362 44.0414 105.154 44.0987C100.869 44.21 96.8808 44.5038 93.1893 44.9801ZM101.113 69.5677C99.4042 70.1892 97.462 70.5 95.2868 70.5C93.4223 70.5 91.8298 70.2281 90.5091 69.6843C89.1885 69.1405 88.1785 68.3636 87.4794 67.3537C86.7802 66.3438 86.4306 65.1396 86.4306 63.7413C86.4306 61.2553 87.4017 59.3132 89.3438 57.9148C91.3637 56.5165 94.0827 55.5454 97.5009 55.0016C100.008 54.5457 102.766 54.2571 105.775 54.1356C107.64 54.0603 109.154 55.5824 109.154 57.4487C109.154 59.3132 108.804 61.0611 108.105 62.6925C107.484 64.3239 106.59 65.7223 105.425 66.8876C104.26 67.9752 102.822 68.8686 101.113 69.5677Z" fill="white"/>
</svg>
