<svg width="1823" height="304" viewBox="0 0 1823 304" fill="none" xmlns="http://www.w3.org/2000/svg">
<path d="M256.445 303.46L380.423 2.12549H414.861L537.978 303.46H484.598L388.171 59.379H406.252L308.964 303.46H256.445ZM317.573 245.345V202.298H477.28V245.345H317.573Z" fill="#020202"/>
<path d="M1477.34 302.838V1.50403H1511.78L1526.85 58.3271V302.838H1477.34ZM1686.12 302.838L1505.75 67.3671L1511.78 1.50403L1692.15 236.975L1686.12 302.838ZM1686.12 302.838L1671.06 249.89V1.50403H1720.56V302.838H1686.12Z" fill="#020202"/>
<path d="M1251.67 303.281V1.94629H1301.17V303.281H1251.67ZM1285.68 303.281V258.08H1454.42V303.281H1285.68ZM1285.68 171.124V127.646L1454.42 129.798V173.276L1285.68 171.124ZM1285.68 47.1464V1.94629H1452.27V47.1464H1285.68Z" fill="#020202"/>
<path d="M1025.75 302.838V1.50403H1075.25V302.838H1025.75ZM1059.75 302.838V257.638H1228.5V302.838H1059.75ZM1059.75 170.682V127.203H1228.5V170.682H1059.75ZM1059.75 46.7042V1.50403H1226.35V46.7042H1059.75Z" fill="#020202"/>
<path d="M852.915 302.838V10.1136H902.419V302.838H852.915ZM754.766 46.7042V1.50403H1000.57V46.7042H754.766Z" fill="#020202"/>
<path d="M636.421 51.0267C618.64 43.4905 601.58 43.6835 584.925 52.8966C570.192 61.0468 561.809 76.0013 559.281 99.0943C556.71 122.574 560.745 151.212 568.144 180.197C575.46 208.858 585.631 236.225 594.06 256.567C598.257 266.697 604.643 280.719 604.643 280.719L615.774 303.348H566.129L552.634 273.732C543.723 252.227 532.72 222.724 524.696 191.288C516.754 160.175 511.282 125.488 514.706 94.2142C518.172 62.5532 531.285 31.3243 563.219 13.6588C593.231 -2.94364 624.882 -2.56666 653.92 9.74058C682.187 21.7213 707.572 44.7031 728.61 73.1305C738.022 85.8488 746.77 99.9328 754.682 115.09V72.0859H800.182V303.46H754.682C754.682 227.276 728.655 148.573 692.565 99.8052C674.512 75.4105 654.972 58.8894 636.421 51.0267Z" fill="#020202"/>
<path d="M1782.63 40.4079V1.52856H1794.59L1802.59 26.3243H1802.69L1810.69 1.52856H1822.65V40.4079H1813.41V16.2103H1813.3L1806.07 40.4079H1799.21L1791.98 16.2103H1791.87V40.4079H1782.63Z" fill="#020202"/>
<path d="M1757.05 40.4088V9.52291H1745.74V1.52954H1778.1V9.52291H1766.84V40.4088H1757.05Z" fill="#020202"/>
<path d="M141.333 303.348C56.9503 303.348 0.826172 239.781 0.826172 152.816C0.826172 66.6305 54.9879 1.50403 141.725 1.50403C175.086 1.50403 202.559 10.0835 222.575 25.2927C246.124 43.6217 260.253 69.7503 263.785 100.169H209.624C204.521 68.9704 179.795 47.1315 141.333 47.1315C85.6011 47.1315 56.1653 92.3691 56.1653 152.816C56.1653 214.432 89.5258 257.72 141.725 257.72C185.29 257.72 209.231 228.862 212.371 193.764H266.925C265.748 222.622 252.011 251.87 231.602 271.369C210.409 292.428 180.58 303.348 141.333 303.348Z" fill="#020202"/>
</svg>
